# File created by Blade
# Date/Time:  Mon Nov 18 18:33:23 2013
# Frame Rate: 100.000 fps
#------------------------------------------------------
:FULLY-SPECIFIED
:DEGREES
216
root 52.968885 -3.614077 52.223738 -3.704754 1.008624 -126.159160
Spine 13.058675 -0.502795 -0.621916
Spine1 3.463402 1.588302 -1.494383
Spine2 0.762317 -1.369297 -1.322684
NeckDummy -0.000952 -0.142842 -0.020944 -1.411331 1.117871 -0.469057
Neck 14.809452 0.191715 27.692413
Head -0.305091 0.356440 0.194332 -34.257394 -4.153375 -0.694139
LeftShoulderDummy -0.062179 -0.133343 0.035918 -1.388787 0.994852 -0.251334
LeftShoulder 7.376290 -3.475629 14.554392
LeftArm 21.403230 50.519771 29.925567
LeftForeArm 90.270638
LeftForeArmRoll -37.198392
LeftHand -9.575199 5.537616 -4.577134
LeftHandThumb1 16.922569 12.495031
LeftHandIndex1 14.390307 43.761844
LeftHandPinky1 13.140004 48.177607
RightShoulderDummy -0.036410 -0.119945 0.057099 -1.431675 -1.117525 0.470370
RightShoulder 5.618364 4.753537 17.282074
RightArm -38.975842 69.235604 -2.010822
RightForeArm 113.183570
RightForeArmRoll 4.010575
RightHand -17.747185 -16.156113 11.864526
RightHandThumb1 -0.486639 13.220599
RightHandIndex1 13.483634 61.151432
RightHandPinky1 18.687800 69.781978
LeftUpLeg 4.828574 21.192701 -34.274174
LeftLeg 59.365585
LeftFoot 0.625956 -1.057264 -0.910580 -11.870631 10.883951 -14.596806
LeftToeBase -1.186512
RightUpLeg 10.593495 13.055194 -25.850560
RightLeg 65.929590
RightFoot -0.530122 0.456434 0.280182 -0.944283 6.643212 -33.297717
RightToeBase -0.875052
217
root 52.958278 -3.633480 52.216895 -3.760229 0.975440 -126.175800
Spine 13.087171 -0.519313 -0.602797
Spine1 3.470857 1.590398 -1.460365
Spine2 0.766049 -1.348254 -1.314437
NeckDummy -0.001184 -0.143345 -0.021118 -1.416983 1.107559 -0.458599
Neck 14.818141 0.191487 27.667289
Head -0.306238 0.357416 0.194724 -34.276842 -4.144059 -0.711936
LeftShoulderDummy -0.061847 -0.133615 0.036011 -1.394891 0.984914 -0.241370
LeftShoulder 7.394433 -3.466828 14.566372
LeftArm 21.334362 50.527198 29.908404
LeftForeArm 90.291558
LeftForeArmRoll -37.176579
LeftHand -9.529507 5.644024 -4.705543
LeftHandThumb1 16.851760 12.435220
LeftHandIndex1 14.468970 43.535901
LeftHandPinky1 13.188799 47.849885
RightShoulderDummy -0.036419 -0.120641 0.056870 -1.437519 -1.106715 0.459167
RightShoulder 5.669240 4.756218 17.324700
RightArm -38.916546 69.299929 -1.961120
RightForeArm 113.129474
RightForeArmRoll 4.129196
RightHand -17.839488 -15.931010 11.730228
RightHandThumb1 -0.822858 13.183116
RightHandIndex1 13.675278 60.497432
RightHandPinky1 18.858010 69.325321
LeftUpLeg 4.797105 21.247724 -34.298039
LeftLeg 59.478878
LeftFoot 0.619992 -1.050939 -0.905820 -11.956417 10.934607 -14.583088
LeftToeBase -1.276564
RightUpLeg 10.510611 12.972037 -25.839005
RightLeg 66.054004
RightFoot -0.535682 0.452496 0.277645 -0.914363 6.725317 -33.326730
RightToeBase -0.924485
218
root 52.939146 -3.652664 52.218783 -3.795531 0.965059 -126.090533
Spine 13.089596 -0.502633 -0.620220
Spine1 3.465507 1.593318 -1.496658
Spine2 0.779843 -1.360729 -1.339504
NeckDummy -0.001056 -0.143105 -0.021604 -1.429351 1.127333 -0.465725
Neck 14.819194 0.198889 27.626421
Head -0.306938 0.354750 0.193775 -34.233913 -4.154888 -0.691793
LeftShoulderDummy -0.062014 -0.133537 0.035614 -1.407332 1.004732 -0.248698
LeftShoulder 7.399768 -3.481626 14.557258
LeftArm 21.265391 50.501402 29.871189
LeftForeArm 90.284005
LeftForeArmRoll -37.155546
LeftHand -9.632798 5.693900 -4.703251
LeftHandThumb1 16.719336 12.514251
LeftHandIndex1 14.600421 43.368733
LeftHandPinky1 13.758415 47.750553
RightShoulderDummy -0.036455 -0.120283 0.057161 -1.450166 -1.126379 0.466613
RightShoulder 5.694913 4.724443 17.367401
RightArm -38.930570 69.330940 -1.988310
RightForeArm 113.061025
RightForeArmRoll 4.035101
RightHand -17.797637 -15.864416 11.762633
RightHandThumb1 -0.903323 13.099105
RightHandIndex1 13.761573 60.314412
RightHandPinky1 18.779106 69.069323
LeftUpLeg 4.640086 21.160115 -34.370410
LeftLeg 59.635503
LeftFoot 0.632911 -1.059178 -0.922882 -11.898978 10.915772 -14.627374
LeftToeBase -1.286264
RightUpLeg 10.480080 12.988817 -25.825964
RightLeg 66.180911
RightFoot -0.531747 0.451759 0.275404 -0.881959 6.808570 -33.359410
RightToeBase -0.927861
219
root 52.930687 -3.673734 52.213310 -3.822472 0.933750 -126.085991
Spine 13.098277 -0.534753 -0.584987
Spine1 3.476898 1.586340 -1.430346
Spine2 0.753532 -1.272176 -1.403937
NeckDummy -0.000903 -0.146418 -0.020825 -1.409519 1.167063 -0.448556
Neck 14.860058 0.162991 27.590843
Head -0.306735 0.357438 0.192362 -34.239514 -4.148001 -0.693890
LeftShoulderDummy -0.061291 -0.136681 0.034914 -1.386986 1.043933 -0.230709
LeftShoulder 7.420199 -3.488847 14.515007
LeftArm 21.263686 50.520960 29.906257
LeftForeArm 90.262551
LeftForeArmRoll -37.146439
LeftHand -9.639121 5.627808 -4.671645
LeftHandThumb1 16.653346 12.537444
LeftHandIndex1 14.691815 43.438264
LeftHandPinky1 13.807333 47.815186
RightShoulderDummy -0.035506 -0.124138 0.058090 -1.429783 -1.166322 0.449933
RightShoulder 5.637959 4.783231 17.369329
RightArm -39.243108 69.395893 -2.365441
RightForeArm 113.098420
RightForeArmRoll 4.203320
RightHand -17.790494 -15.685849 11.685145
RightHandThumb1 -0.734308 12.961089
RightHandIndex1 13.499978 59.860839
RightHandPinky1 18.608071 68.836525
LeftUpLeg 4.529834 21.174598 -34.421072
LeftLeg 59.800933
LeftFoot 0.629785 -1.058399 -0.915437 -11.955562 10.965992 -14.717076
LeftToeBase -1.247800
RightUpLeg 10.385490 12.919629 -25.847528
RightLeg 66.326842
RightFoot -0.529800 0.453386 0.267689 -0.885800 6.932316 -33.472347
RightToeBase -0.961227
